<?xml version="1.0" encoding="UTF-8" standalone="no"?>
<!DOCTYPE svg PUBLIC "-//W3C//DTD SVG 1.1//EN"
 "http://www.w3.org/Graphics/SVG/1.1/DTD/svg11.dtd">
<!-- Generated by graphviz version 2.40.1 (20161225.0304)
 -->
<!-- Title: dependencies Pages: 1 -->
<svg width="504pt" height="284pt"
 viewBox="0.00 0.00 504.00 284.00" xmlns="http://www.w3.org/2000/svg" xmlns:xlink="http://www.w3.org/1999/xlink">
<g id="graph0" class="graph" transform="scale(1 1) rotate(0) translate(4 280)">
<title>dependencies</title>
<polygon fill="#ffffff" stroke="transparent" points="-4,4 -4,-280 500,-280 500,4 -4,4"/>
<text text-anchor="start" x="227.0091" y="-42.4" font-family="sans-serif" font-weight="bold" font-size="14.00" fill="#000000">Legend</text>
<polygon fill="#ffffb3" stroke="transparent" points="14,-10 14,-30 34,-30 34,-10 14,-10"/>
<text text-anchor="start" x="37.629" y="-15.4" font-family="sans-serif" font-size="14.00" fill="#000000"> &#160;Declarations</text>
<polygon fill="#8dd3c7" stroke="transparent" points="127,-10 127,-30 147,-30 147,-10 127,-10"/>
<text text-anchor="start" x="150.7251" y="-15.4" font-family="sans-serif" font-size="14.00" fill="#000000"> &#160;Module</text>
<polygon fill="#80b1d3" stroke="transparent" points="213,-10 213,-30 233,-30 233,-10 213,-10"/>
<text text-anchor="start" x="236.7812" y="-15.4" font-family="sans-serif" font-size="14.00" fill="#000000"> &#160;Bootstrap</text>
<polygon fill="#fdb462" stroke="transparent" points="310,-10 310,-30 330,-30 330,-10 310,-10"/>
<text text-anchor="start" x="333.6732" y="-15.4" font-family="sans-serif" font-size="14.00" fill="#000000"> &#160;Providers</text>
<polygon fill="#fb8072" stroke="transparent" points="406,-10 406,-30 426,-30 426,-10 406,-10"/>
<text text-anchor="start" x="429.7258" y="-15.4" font-family="sans-serif" font-size="14.00" fill="#000000"> &#160;Exports</text>
<g id="clust1" class="cluster">
<title>cluster_ComponentsModule</title>
<polygon fill="none" stroke="#000000" stroke-dasharray="1,5" points="98.5,-70 98.5,-268 397.5,-268 397.5,-70 98.5,-70"/>
</g>
<g id="clust2" class="cluster">
<title>cluster_ComponentsModule_declarations</title>
<polygon fill="none" stroke="#000000" points="110.5,-78 110.5,-130 386.5,-130 386.5,-78 110.5,-78"/>
</g>
<g id="clust6" class="cluster">
<title>cluster_ComponentsModule_exports</title>
<polygon fill="none" stroke="#000000" points="106.5,-208 106.5,-260 389.5,-260 389.5,-208 106.5,-208"/>
</g>
<!-- PostComponent -->
<g id="node1" class="node">
<title>PostComponent</title>
<polygon fill="#ffffb3" stroke="#000000" points="378.4512,-122 272.5488,-122 272.5488,-86 378.4512,-86 378.4512,-122"/>
<text text-anchor="middle" x="325.5" y="-99.8" font-family="Times,serif" font-size="14.00" fill="#000000">PostComponent</text>
</g>
<!-- ComponentsModule -->
<g id="node3" class="node">
<title>ComponentsModule</title>
<polygon fill="#8dd3c7" stroke="#000000" points="252.8272,-187 249.8272,-191 228.8272,-191 225.8272,-187 122.1728,-187 122.1728,-151 252.8272,-151 252.8272,-187"/>
<text text-anchor="middle" x="187.5" y="-164.8" font-family="Times,serif" font-size="14.00" fill="#000000">ComponentsModule</text>
</g>
<!-- PostComponent&#45;&gt;ComponentsModule -->
<g id="edge1" class="edge">
<title>PostComponent&#45;&gt;ComponentsModule</title>
<path fill="none" stroke="#000000" d="M343.1584,-122.0225C343.1584,-139.3734 343.1584,-163 343.1584,-163 343.1584,-163 263.062,-163 263.062,-163"/>
<polygon fill="#000000" stroke="#000000" points="263.0621,-159.5001 253.062,-163 263.062,-166.5001 263.0621,-159.5001"/>
</g>
<!-- CommentComponent -->
<g id="node2" class="node">
<title>CommentComponent</title>
<polygon fill="#ffffb3" stroke="#000000" points="254.5561,-122 118.4439,-122 118.4439,-86 254.5561,-86 254.5561,-122"/>
<text text-anchor="middle" x="186.5" y="-99.8" font-family="Times,serif" font-size="14.00" fill="#000000">CommentComponent</text>
</g>
<!-- CommentComponent&#45;&gt;ComponentsModule -->
<g id="edge2" class="edge">
<title>CommentComponent&#45;&gt;ComponentsModule</title>
<path fill="none" stroke="#000000" d="M187.5,-122.1061C187.5,-122.1061 187.5,-140.991 187.5,-140.991"/>
<polygon fill="#000000" stroke="#000000" points="184.0001,-140.9909 187.5,-150.991 191.0001,-140.991 184.0001,-140.9909"/>
</g>
<!-- PostComponent  -->
<g id="node4" class="node">
<title>PostComponent </title>
<polygon fill="#fb8072" stroke="#000000" points="381.9502,-252 273.0498,-252 273.0498,-216 381.9502,-216 381.9502,-252"/>
<text text-anchor="middle" x="327.5" y="-229.8" font-family="Times,serif" font-size="14.00" fill="#000000">PostComponent </text>
</g>
<!-- ComponentsModule&#45;&gt;PostComponent  -->
<g id="edge3" class="edge">
<title>ComponentsModule&#45;&gt;PostComponent </title>
<path fill="none" stroke="#000000" stroke-dasharray="5,2" d="M252.737,-175C281.151,-175 308.0916,-175 308.0916,-175 308.0916,-175 308.0916,-205.9775 308.0916,-205.9775"/>
<polygon fill="#000000" stroke="#000000" points="304.5917,-205.9774 308.0916,-215.9775 311.5917,-205.9775 304.5917,-205.9774"/>
</g>
<!-- CommentComponent  -->
<g id="node5" class="node">
<title>CommentComponent </title>
<polygon fill="#fb8072" stroke="#000000" points="254.5554,-252 114.4446,-252 114.4446,-216 254.5554,-216 254.5554,-252"/>
<text text-anchor="middle" x="184.5" y="-229.8" font-family="Times,serif" font-size="14.00" fill="#000000">CommentComponent </text>
</g>
<!-- ComponentsModule&#45;&gt;CommentComponent  -->
<g id="edge4" class="edge">
<title>ComponentsModule&#45;&gt;CommentComponent </title>
<path fill="none" stroke="#000000" stroke-dasharray="5,2" d="M187.5,-187.1061C187.5,-187.1061 187.5,-205.991 187.5,-205.991"/>
<polygon fill="#000000" stroke="#000000" points="184.0001,-205.9909 187.5,-215.991 191.0001,-205.991 184.0001,-205.9909"/>
</g>
</g>
</svg>
